# xmcd
#
# Track frame offsets: 
#        150
#        10401
#        28549
#        42055
#        53269
#        66942
#        78394
#        93946
#        106894
#        119995
#        133894
#        143236
#
# Disc length: 2138 seconds
#
# Revision: 0
# Processed by: cddbd v1.4PL0 Copyright (c) Steve Scherf et al.
# Submitted via: ExactAudioCopy v0.95a3
#
DISCID=9f08580c
DTITLE=Mel McDaniel - Original Artist Hit List - Mel McDaniel
DYEAR=2003
DGENRE=
TTITLE0=Louisiana Saturday Night
TTITLE1=C'Mon Sixty-Five
TTITLE2=Baby's Got Her Blue Jeans On
TTITLE3=Stands On It
TTITLE4=Louisiana Moon
TTITLE5=Stand Up
TTITLE6=Hello Daddy, Good Morning Darling
TTITLE7=Big Ole Brew
TTITLE8=Inseparable
TTITLE9=Out Of The Question
TTITLE10=Let It Roll
TTITLE11=Mama's Bible
EXTD=
EXTT0=
EXTT1=
EXTT2=
EXTT3=
EXTT4=
EXTT5=
EXTT6=
EXTT7=
EXTT8=
EXTT9=
EXTT10=
EXTT11=
PLAYORDER=
